<svg width="24" height="24" viewBox="0 0 24 24" fill="none" xmlns="http://www.w3.org/2000/svg">
<g clip-path="url(#clip0)">
<path d="M23.8535 11.646L16.3535 4.14601C16.1582 3.95068 15.8418 3.95068 15.6465 4.14601C15.4512 4.34134 15.4512 4.65774 15.6465 4.85302L22.293 11.4995H0.500016C0.223641 11.4995 0 11.7232 0 11.9995C0 12.2759 0.223641 12.4996 0.500016 12.4996H22.293L15.6465 19.146C15.4512 19.3413 15.4512 19.6577 15.6465 19.853C15.7441 19.9507 15.8721 19.9995 16 19.9995C16.128 19.9995 16.2559 19.9507 16.3536 19.853L23.8536 12.353C24.0488 12.1577 24.0488 11.8413 23.8535 11.646Z" fill="#FF7547"/>
</g>
<defs>
<clipPath id="clip0">
<rect width="24" height="24" fill="white"/>
</clipPath>
</defs>
</svg>
