<svg width="64" height="64" viewBox="0 0 64 64" fill="none" xmlns="http://www.w3.org/2000/svg">
<path d="M26.197 37.7C26.3437 37.7667 26.5104 37.8333 26.697 37.9C26.897 37.9533 27.0904 37.98 27.277 37.98C27.8504 37.98 28.3104 37.82 28.657 37.5C29.0037 37.1667 29.177 36.7133 29.177 36.14V24.6H30.557V36C30.557 36.4667 30.477 36.9 30.317 37.3C30.1704 37.6867 29.9504 38.02 29.657 38.3C29.377 38.58 29.037 38.8 28.637 38.96C28.237 39.12 27.797 39.2 27.317 39.2C26.7037 39.2 26.1504 39.06 25.657 38.78L26.197 37.7ZM32.74 37.7C32.8867 37.7667 33.0533 37.8333 33.24 37.9C33.44 37.9533 33.6333 37.98 33.82 37.98C34.3933 37.98 34.8533 37.82 35.2 37.5C35.5467 37.1667 35.72 36.7133 35.72 36.14V24.6H37.1V36C37.1 36.4667 37.02 36.9 36.86 37.3C36.7133 37.6867 36.4933 38.02 36.2 38.3C35.92 38.58 35.58 38.8 35.18 38.96C34.78 39.12 34.34 39.2 33.86 39.2C33.2467 39.2 32.6933 39.06 32.2 38.78L32.74 37.7Z" fill="#504382"/>
<path fill-rule="evenodd" clip-rule="evenodd" d="M1 1H63V20H64V1V0H63H1H0V1V20H1V1ZM1 40H0V63V64H1H63H64V63V40H63V63H1V40Z" fill="#504382"/>
</svg>
