<svg width="40" height="40" viewBox="0 0 40 40" fill="none" xmlns="http://www.w3.org/2000/svg">
<path d="M11.99 26.2C12.1367 26.2667 12.3033 26.3333 12.49 26.4C12.69 26.4533 12.8833 26.48 13.07 26.48C13.6433 26.48 14.1033 26.32 14.45 26C14.7967 25.6667 14.97 25.2133 14.97 24.64V13.1H16.35V24.5C16.35 24.9667 16.27 25.4 16.11 25.8C15.9633 26.1867 15.7433 26.52 15.45 26.8C15.17 27.08 14.83 27.3 14.43 27.46C14.03 27.62 13.59 27.7 13.11 27.7C12.4967 27.7 11.9433 27.56 11.45 27.28L11.99 26.2ZM18.533 26.2C18.6796 26.2667 18.8463 26.3333 19.033 26.4C19.233 26.4533 19.4263 26.48 19.613 26.48C20.1863 26.48 20.6463 26.32 20.993 26C21.3396 25.6667 21.513 25.2133 21.513 24.64V13.1H22.893V24.5C22.893 24.9667 22.813 25.4 22.653 25.8C22.5063 26.1867 22.2863 26.52 21.993 26.8C21.713 27.08 21.373 27.3 20.973 27.46C20.573 27.62 20.133 27.7 19.653 27.7C19.0396 27.7 18.4863 27.56 17.993 27.28L18.533 26.2Z" fill="#5039A3"/>
<path fill-rule="evenodd" clip-rule="evenodd" d="M1 1H39V12.5H40V1V0H39H1H0V1V12.5H1V1ZM1 25H0V39V40H1H39H40V39V25H39V39H1V25Z" fill="#5039A3"/>
</svg>
