<svg width="40" height="73" viewBox="0 0 40 73" fill="none" xmlns="http://www.w3.org/2000/svg">
<rect x="0.5" y="0.5" width="39" height="55" rx="19.5" stroke="#F6F9FE"/>
<path d="M23.5 22C23.5 25.2749 23.0568 28.2191 22.3541 30.3272C22.0019 31.3838 21.5935 32.2029 21.1643 32.7475C20.7306 33.2977 20.3334 33.5 20 33.5C19.6666 33.5 19.2694 33.2977 18.8357 32.7475C18.4065 32.2029 17.9981 31.3838 17.6459 30.3272C16.9432 28.2191 16.5 25.2749 16.5 22C16.5 18.7251 16.9432 15.7809 17.6459 13.6728C17.9981 12.6162 18.4065 11.7971 18.8357 11.2525C19.2694 10.7023 19.6666 10.5 20 10.5C20.3334 10.5 20.7306 10.7023 21.1643 11.2525C21.5935 11.7971 22.0019 12.6162 22.3541 13.6728C23.0568 15.7809 23.5 18.7251 23.5 22Z" stroke="#F6F9FE"/>
<line x1="13.5" y1="59.5" x2="13.5" y2="67.5" stroke="#F6F9FE" stroke-linecap="round"/>
<line x1="25.5" y1="59.5" x2="25.5" y2="67.5" stroke="#F6F9FE" stroke-linecap="round"/>
<line x1="19.5" y1="59.5" x2="19.5" y2="72.5" stroke="#F6F9FE" stroke-linecap="round"/>
</svg>
