<svg width="40" height="73" viewBox="0 0 40 73" fill="none" xmlns="http://www.w3.org/2000/svg">
<rect x="0.5" y="0.5" width="39" height="55" rx="19.5" stroke="#F6F9FE"/>
<path d="M23.5 16C23.5 17.5719 23.0743 18.9724 22.4124 19.9653C21.7481 20.9617 20.8854 21.5 20 21.5C19.1146 21.5 18.2519 20.9617 17.5876 19.9653C16.9257 18.9724 16.5 17.5719 16.5 16C16.5 14.4281 16.9257 13.0276 17.5876 12.0347C18.2519 11.0383 19.1146 10.5 20 10.5C20.8854 10.5 21.7481 11.0383 22.4124 12.0347C23.0743 13.0276 23.5 14.4281 23.5 16Z" stroke="#F6F9FE"/>
<line x1="13.5" y1="59.5" x2="13.5" y2="67.5" stroke="#F6F9FE" stroke-linecap="round"/>
<line x1="25.5" y1="59.5" x2="25.5" y2="67.5" stroke="#F6F9FE" stroke-linecap="round"/>
<line x1="19.5" y1="59.5" x2="19.5" y2="72.5" stroke="#F6F9FE" stroke-linecap="round"/>
</svg>
