<svg width="100" height="100" viewBox="0 0 100 100" fill="none" xmlns="http://www.w3.org/2000/svg">
<path d="M50 0C22.4283 0 0 22.4305 0 50C0 77.5695 22.4283 100 50 100C77.5717 100 100 77.5695 100 50C100 22.4305 77.5717 0 50 0ZM50 95.8334C24.7273 95.8334 4.1666 75.2727 4.1666 50C4.1666 24.7273 24.7273 4.1666 50 4.1666C75.2727 4.1666 95.8334 24.7273 95.8334 50C95.8334 75.2727 75.2727 95.8334 50 95.8334Z" fill="#F6F9FE"/>
<path d="M69.8771 48.2471L40.7105 29.4971C40.0717 29.0801 39.2457 29.0576 38.5865 29.4197C37.915 29.7859 37.5 30.4859 37.5 31.2488V68.7488C37.5 69.5117 37.915 70.2117 38.5865 70.5779C38.8957 70.7469 39.2416 70.8322 39.5834 70.8322C39.974 70.8322 40.3688 70.7223 40.7105 70.5006L69.8771 51.7506C70.4713 51.3682 70.8334 50.7068 70.8334 49.9988C70.8334 49.2908 70.4713 48.6297 69.8771 48.2471ZM41.6666 64.932V35.0656L64.8967 49.9988L41.6666 64.932Z" fill="#F6F9FE"/>
</svg>
