<svg width="80" height="80" viewBox="0 0 80 80" fill="none" xmlns="http://www.w3.org/2000/svg">
<circle cx="40" cy="40" r="40" fill="#F6F9FE"/>
<path d="M40 8C22.3541 8 8 22.3555 8 40C8 57.6445 22.3541 72 40 72C57.6459 72 72 57.6445 72 40C72 22.3555 57.6459 8 40 8ZM40 69.3334C23.8255 69.3334 10.6666 56.1745 10.6666 40C10.6666 23.8255 23.8255 10.6666 40 10.6666C56.1745 10.6666 69.3334 23.8255 69.3334 40C69.3334 56.1745 56.1745 69.3334 40 69.3334Z" fill="#FF7547"/>
<path d="M52.7214 38.8785L34.0548 26.8785C33.6459 26.6116 33.1173 26.5973 32.6954 26.829C32.2656 27.0634 32 27.5114 32 27.9996V51.9996C32 52.4879 32.2656 52.9359 32.6954 53.1703C32.8933 53.2784 33.1146 53.333 33.3334 53.333C33.5834 53.333 33.836 53.2626 34.0548 53.1208L52.7214 41.1208C53.1016 40.876 53.3334 40.4528 53.3334 39.9996C53.3334 39.5465 53.1016 39.1234 52.7214 38.8785ZM34.6666 49.5569V30.4424L49.5339 39.9996L34.6666 49.5569Z" fill="#FF7547"/>
</svg>
